<?xml version="1.0" encoding="UTF-8"?><svg id="Layer_1" xmlns="http://www.w3.org/2000/svg" viewBox="0 0 702 432"><defs><style>.cls-1{fill:#2e3b3c;stroke-width:0px;}</style></defs><path class="cls-1" d="M500.24,124.29c-2.32,4.26-5.34,8.29-6.81,12.82-4,12.3-6.96,24.94-11.05,37.21-3.66,10.97-9.09,21.16-18.31,28.64-16.05,13.03-38.44,10.02-50.67-6.65-9.24-12.6-12.63-27.29-14.92-42.33-3.73-24.49-7.05-49.04-11.23-73.45-1.21-7.06-4.08-14.07-7.39-20.49-5.31-10.3-12.69-10.56-17.78-.29-4.22,8.52-7.67,17.83-9.25,27.17-4.73,28.02-8.01,56.29-12.58,84.34-2.56,15.69-5.95,31.31-10.13,46.64-2.73,10.01-8.56,18.75-17.28,25.04-16.87,12.17-38.3,9.2-51.13-7.13-9.84-12.53-13.98-27.42-17.2-42.61-3.52-16.57-6.38-33.3-10.24-49.79-1.44-6.17-4.34-12.2-7.6-17.69-3.05-5.13-6.81-4.91-9.98.24-2.31,3.76-3.58,8.15-5.33,12.26-4.61,10.81-8.41,22.07-14.06,32.3-5.82,10.54-16.37,14.52-26.15,12.16-6.16-1.49-8.95-5.9-10.28-11.59-1.19-5.11,1.04-8.54,4.67-12.22,3.98-4.03,7.3-9.06,9.69-14.22,3.61-7.81,6.03-16.17,9.21-24.19,1.83-4.62,3.83-9.24,6.33-13.52,13.69-23.44,44.01-24.56,59.57-2.29,9.34,13.38,13.39,28.82,17.09,44.37,3.77,15.83,7.11,31.77,11.1,47.54,1.32,5.23,3.61,10.37,6.31,15.07,4.08,7.1,8.15,7.13,11.56-.42,3.51-7.78,6.57-16.09,7.89-24.48,3.31-21.01,5.55-42.2,8.19-63.31,3.14-25.09,6.31-50.22,16.58-73.65,2.9-6.61,6.77-13.07,11.36-18.62,17.02-20.58,44.7-20.28,61.7.38,10.21,12.41,15.49,27.23,18.11,42.69,3.73,21.95,5.96,44.15,9.28,66.18,1.35,8.98,3.41,17.94,6.12,26.6,1.05,3.35,4.83,5.85,7.36,8.73,2.43-2.79,5.85-5.2,7.09-8.45,3.91-10.21,7.09-20.71,10.38-31.14,3.31-10.48,6.68-20.88,13.42-29.83,14.37-19.06,39.72-19.31,53.93-.1,4.31,5.82,7.35,12.58,10.88,18.97,3.61,6.53,6.61,13.48,10.84,19.58,2.82,4.07,7,7.45,11.16,10.29,5.54,3.8,8.12,9.1,6.43,15.87-1.74,6.96-6.1,10.52-13.12,10.73-11.61.36-20.37-5.48-26.56-14.31-6.15-8.78-10.73-18.65-16.04-28.03-2.83-5-5.73-9.97-8.6-14.95-.85-.02-1.71-.05-2.56-.07Z"/><path class="cls-1" d="M381.02,331.93c14.09-18.41,41.47-19.69,52.77.89,5.41-7.2,12.44-12.02,21.01-14.05,20.31-4.81,42.46,2.92,43.41,32.55.61,18.97.52,37.96.79,56.94.05,3.48-1.72,4.75-4.94,4.7-5.16-.08-10.34-.31-15.49-.07-4.65.22-5.64-2.1-5.57-6.12.27-15.15.46-30.31.48-45.46,0-3.62-.19-7.39-1.22-10.82-1.71-5.69-5.3-9.86-11.63-11-6.67-1.2-12.18,1.01-15.35,6.69-2.42,4.33-4.53,9.49-4.64,14.34-.36,15.3.25,30.62.55,45.94.1,5.26-1.01,6.55-6.3,6.54-4.5,0-9-.3-13.49-.12-3.93.16-5.22-1.45-5.24-5.3-.08-14.49-.37-28.97-.68-43.46-.08-3.47-.3-6.98-.88-10.4-1.66-9.8-7.44-14.75-16.46-14.41-8.35.32-15.92,7.13-16.64,15.74-.58,6.95-.36,13.98-.4,20.97-.06,10.33-.16,20.65-.01,30.98.06,4.34-1.66,6.03-5.94,5.81-4.32-.22-8.67-.27-12.99-.04-3.89.21-5.47-1.36-5.47-5.17,0-10.32-.16-20.65-.17-30.97-.02-17.16.12-34.31-.04-51.47-.04-4.13,1.29-5.77,5.47-5.51,4.15.27,8.32.07,12.49.09,5.82.03,6.53.75,6.57,6.62,0,1.65,0,3.29,0,5.57Z"/><path class="cls-1" d="M46.41,332c16.01-20.03,43.85-17.69,52.65,1.1,10.17-13.33,24.05-16.78,39.62-14.04,12.89,2.27,21.91,12.29,22.52,25.78.97,21.28.95,42.61,1.07,63.92,0,1.38-2.26,3.88-3.6,3.97-5.97.4-11.98.2-17.97.05-4.1-.1-4.08-3.25-4.03-6.13.24-15.65.72-31.29.68-46.94,0-4.03-.88-8.37-2.57-12.01-4.73-10.22-17.89-11.9-24.51-2.83-3.06,4.18-5.39,9.9-5.54,15-.46,15.62.26,31.28.6,46.93.11,4.97-1.01,6.28-6.02,6.25-4.66-.03-9.33-.27-13.99-.14-3.7.1-4.93-1.45-4.91-5.08.05-15.32-.09-30.65-.22-45.97-.02-2.49-.29-4.99-.59-7.46-1.07-8.94-6.24-14.37-14.05-14.84-8.64-.52-16.16,4.84-18.12,13.18-.64,2.72-.91,5.59-.92,8.4-.09,15.32-.19,30.65.02,45.97.06,4.44-1.57,5.99-5.84,5.74-4.15-.24-8.34-.29-12.49-.05-4.28.25-5.91-1.32-5.88-5.7.14-21.82.04-43.64.03-65.46,0-5.66.19-11.33-.03-16.99-.14-3.62.96-5.22,4.8-4.98,4.31.27,8.67.3,12.98.04,4.83-.29,6.78,1.73,6.34,6.46-.16,1.74-.03,3.5-.03,5.84Z"/><path class="cls-1" d="M239.35,401.55c-9.27,12.18-20.5,15.39-33.93,14.44-15.8-1.12-25.26-13.36-26.91-26.82-.87-7.07-.78-14.29-.83-21.44-.11-14,.08-28-.05-42-.04-4.21,1.42-6.18,5.81-5.96,4.32.21,8.67.24,12.99,0,4.45-.24,5.84,1.82,5.83,5.97-.04,17.16,0,34.33.16,51.5.09,9.4,5.39,16.15,13.66,17.8,5.82,1.16,10.46-1.46,14.45-5.13,5.36-4.92,8.28-11.04,8.21-18.56-.13-15-.08-30,0-44.99.03-6.45.35-6.67,6.87-6.64,3.83.02,7.67.19,11.5.06,4.48-.15,6.15,1.76,6.13,6.28-.11,24.5,0,48.99.01,73.49,0,2.83.04,5.67-.09,8.5-.16,3.63-2.14,5.44-5.8,5.31-4.83-.17-9.69-.1-14.46-.69-1.32-.16-2.93-2.15-3.43-3.63-.6-1.76-.14-3.88-.14-7.49Z"/><path class="cls-1" d="M577.49,401.88c-10.84,13.58-24.11,15.64-38.71,12.77-12.18-2.39-22.09-14.14-22.26-26.73-.28-21.16-.08-42.33-.23-63.49-.03-3.78,1.44-5.01,5.04-4.83,4.49.22,9,.25,13.49.07,4.12-.16,5.54,1.56,5.52,5.63-.11,17.33-.04,34.66.09,51.99.07,9.52,6.14,16.97,14.83,17.81,7.58.73,13.41-3.29,17.01-9.35,2.6-4.37,4.48-9.8,4.69-14.85.64-14.97.27-29.98.36-44.98.04-6.19.26-6.31,6.64-6.24,4.17.05,8.33.06,12.5.06,3.47,0,5.02,1.51,5.01,5.2-.09,27.5-.09,54.99,0,82.49.02,4.66-2.1,6.29-6.44,6-3.66-.24-7.32-.43-10.98-.48-6.32-.1-6.49-.22-6.57-6.41-.01-1.12,0-2.23,0-4.67Z"/><path class="cls-1" d="M646.3,334.38c6.83-10.62,14.78-16.68,26.56-16.07,6.01.31,6.92,1.27,6.84,7.12-.06,4.33-.07,8.66-.16,12.98-.06,2.87-1.19,4.07-4.4,3.68-3.93-.47-8.04-.75-11.91-.12-10.05,1.66-16.64,10.59-17.01,23.38-.38,13.31-.12,26.63-.17,39.95-.03,7.92-.09,7.96-8.17,7.93-3.81-.01-7.61-.06-11.42-.08-3.17-.02-4.91-1.27-4.91-4.77.06-28.13.04-56.27.02-84.4,0-3.1,1.3-4.55,4.55-4.4,4.48.21,8.98.21,13.47.18,4.63-.03,7.36,1.58,6.74,6.8-.25,2.1-.04,4.26-.04,7.81Z"/><path class="cls-1" d="M306.31,334.5c5.82-9.4,12.54-15.15,22.39-16.25,1.32-.15,2.66-.25,3.98-.15,7.04.53,7.73,1.32,7.73,8.45,0,3.66-.04,7.33,0,10.99.04,3.62-1.37,5-5.23,4.49-3.75-.49-7.71-.68-11.41-.03-10.23,1.81-17.17,11.35-17.34,23.71-.19,13.82-.21,27.64,0,41.46.07,4.6-1.65,6.37-6.13,6.13-4.3-.24-8.61-.21-12.92-.22-3.41,0-5.1-1.24-5.09-5.01.09-27.97.05-55.95-.03-83.92,0-3.43,1.29-4.78,4.78-4.56,4.31.27,8.64.22,12.96.16,4.58-.06,6.84,1.85,6.36,6.65-.21,2.14-.04,4.32-.04,8.09Z"/></svg>